<svg width="20" height="20" viewBox="0 0 20 20" fill="none" xmlns="http://www.w3.org/2000/svg">
<path d="M10 6.29425e-05C15.5228 6.29425e-05 20 4.47721 20 10.0001C20 15.5229 15.5228 20.0001 10 20.0001C4.47715 20.0001 4.82823e-07 15.5229 0 10.0001C-4.82823e-07 4.47722 4.47715 6.29425e-05 10 6.29425e-05Z" fill="#ED1515"/>
<path fill-rule="evenodd" clip-rule="evenodd" d="M13.2727 9.99311C13.0113 9.73171 12.5875 9.73171 12.3261 9.99311L10.0002 12.319L7.67432 9.99311C7.41291 9.73171 6.98909 9.73171 6.72768 9.99311C6.46628 10.2545 6.46628 10.6783 6.72768 10.9397L9.52687 13.7389C9.78828 14.0003 10.2121 14.0003 10.4735 13.7389L13.2727 10.9397C13.5341 10.6783 13.5341 10.2545 13.2727 9.99311Z" fill="white"/>
<path fill-rule="evenodd" clip-rule="evenodd" d="M10.0006 6.06488C9.63087 6.06488 9.33118 6.36457 9.33118 6.73425L9.33118 12.3326C9.33118 12.7023 9.63087 13.002 10.0006 13.002C10.3702 13.002 10.6699 12.7023 10.6699 12.3326L10.6699 6.73425C10.6699 6.36457 10.3702 6.06488 10.0006 6.06488Z" fill="white"/>
</svg>
