<svg width="20" height="20" viewBox="0 0 20 20" fill="none" xmlns="http://www.w3.org/2000/svg">
<path d="M10 19.9999C15.5228 19.9999 20 15.5228 20 9.99994C20 4.47709 15.5228 -6.05523e-05 10 -6.10352e-05C4.47715 -6.1518e-05 4.82823e-07 4.47709 0 9.99994C-4.82823e-07 15.5228 4.47715 19.9999 10 19.9999Z" fill="#45A33D"/>
<path fill-rule="evenodd" clip-rule="evenodd" d="M13.2727 10.0069C13.0113 10.2683 12.5875 10.2683 12.3261 10.0069L10.0002 7.68101L7.67432 10.0069C7.41291 10.2683 6.98909 10.2683 6.72768 10.0069C6.46628 9.74548 6.46628 9.32166 6.72768 9.06025L9.52687 6.26106C9.78828 5.99966 10.2121 5.99966 10.4735 6.26106L13.2727 9.06025C13.5341 9.32166 13.5341 9.74548 13.2727 10.0069Z" fill="white"/>
<path fill-rule="evenodd" clip-rule="evenodd" d="M10.0006 13.9351C9.63087 13.9351 9.33118 13.6354 9.33118 13.2657L9.33118 7.66737C9.33118 7.29768 9.63087 6.998 10.0006 6.998C10.3702 6.998 10.6699 7.29768 10.6699 7.66737L10.6699 13.2657C10.6699 13.6354 10.3702 13.9351 10.0006 13.9351Z" fill="white"/>
</svg>
