<svg width="21" height="20" viewBox="0 0 21 20" fill="none" xmlns="http://www.w3.org/2000/svg">
<path d="M10.1651 13.9351C10.5348 13.9351 10.8345 13.6354 10.8345 13.2658V8.35014L12.4911 10.0068C12.7525 10.2682 13.1763 10.2682 13.4377 10.0068C13.6991 9.74536 13.6991 9.32154 13.4377 9.06013L10.6385 6.26094C10.3771 5.99953 9.95329 5.99953 9.69188 6.26094L6.89269 9.06013C6.63129 9.32154 6.63129 9.74536 6.89269 10.0068C7.1541 10.2682 7.57792 10.2682 7.83933 10.0068L9.49571 8.35038V13.2658C9.49571 13.6354 9.7954 13.9351 10.1651 13.9351Z" fill="#29322C"/>
<path fill-rule="evenodd" clip-rule="evenodd" d="M10.165 20C4.64219 20 0.165039 15.5228 0.165039 10C0.165039 4.47715 4.64219 0 10.165 0C15.6879 0 20.165 4.47715 20.165 10C20.165 15.5228 15.6879 20 10.165 20ZM1.50378 10C1.50378 14.7835 5.38156 18.6613 10.165 18.6613C14.9485 18.6613 18.8263 14.7835 18.8263 10C18.8263 5.21652 14.9485 1.33874 10.165 1.33874C5.38156 1.33874 1.50378 5.21652 1.50378 10Z" fill="#29322C"/>
</svg>
