<svg width="21" height="20" viewBox="0 0 21 20" fill="none" xmlns="http://www.w3.org/2000/svg">
<path d="M10.1651 6.06487C10.5348 6.06487 10.8345 6.36456 10.8345 6.73424V11.6499L12.4911 9.99324C12.7525 9.73183 13.1763 9.73183 13.4377 9.99324C13.6991 10.2546 13.6991 10.6785 13.4377 10.9399L10.6385 13.7391C10.3771 14.0005 9.95329 14.0005 9.69188 13.7391L6.89269 10.9399C6.63129 10.6785 6.63129 10.2546 6.89269 9.99324C7.1541 9.73183 7.57792 9.73183 7.83933 9.99324L9.49571 11.6496V6.73424C9.49571 6.36456 9.7954 6.06487 10.1651 6.06487Z" fill="#29322C"/>
<path fill-rule="evenodd" clip-rule="evenodd" d="M10.165 0C4.64219 0 0.165039 4.47715 0.165039 10C0.165039 15.5228 4.64219 20 10.165 20C15.6879 20 20.165 15.5228 20.165 10C20.165 4.47715 15.6879 0 10.165 0ZM1.50378 10C1.50378 5.21652 5.38156 1.33874 10.165 1.33874C14.9485 1.33874 18.8263 5.21652 18.8263 10C18.8263 14.7835 14.9485 18.6613 10.165 18.6613C5.38156 18.6613 1.50378 14.7835 1.50378 10Z" fill="#29322C"/>
</svg>
