<svg width="6" height="12" viewBox="0 0 6 12" fill="none" xmlns="http://www.w3.org/2000/svg">
<path opacity="0.6" d="M6 11.6726V12H0V11.6726H0.495697C1.07401 11.6726 1.49398 11.528 1.75559 11.2389C1.92083 11.0501 2.00344 10.5959 2.00344 9.87611V2.12389C2.00344 1.51622 1.95869 1.11504 1.86919 0.920354C1.80034 0.772861 1.65921 0.646018 1.44578 0.539823C1.14286 0.39823 0.826162 0.327434 0.495697 0.327434H0V0H6V0.327434H5.49398C4.92255 0.327434 4.50602 0.471976 4.24441 0.761062C4.07229 0.949853 3.98623 1.40413 3.98623 2.12389V9.87611C3.98623 10.4838 4.03098 10.885 4.12048 11.0796C4.18933 11.2271 4.33391 11.354 4.55422 11.4602C4.85026 11.6018 5.16351 11.6726 5.49398 11.6726H6Z" fill="white"/>
</svg>
