<svg width="78" height="31" viewBox="0 0 78 31" fill="none" xmlns="http://www.w3.org/2000/svg">
<path d="M22.3873 30.0726H20.8716C20.6474 29.9617 20.6497 29.9103 20.6299 29.6768C20.5178 28.3176 20.728 26.7984 20.6392 25.4217C21.6458 25.2699 22.9232 25.1764 23.7792 25.8339C24.8406 26.6501 24.7367 28.9551 23.5164 29.6301L22.3861 30.0726H22.3873ZM21.2207 29.6079C23.0762 30.0107 24.6024 28.3818 23.6928 26.6186C23.2082 25.6809 21.2207 25.5571 21.2207 25.9436V29.6079Z" fill="url(#paint0_linear_8209_16451)"/>
<path d="M28.4499 30.0715H27.051C26.8268 29.9606 26.8292 29.9092 26.8093 29.6757C26.6972 28.3165 26.9074 26.7973 26.8187 25.4206C27.8532 25.2676 29.1646 25.1602 30.0065 25.9028C31.1158 26.8814 30.7842 29.218 29.3829 29.782L28.4499 30.0727V30.0715ZM27.4002 29.6068C29.1646 29.8765 30.5413 28.71 29.9388 26.9001C29.4985 25.5782 27.4002 25.5852 27.4002 25.9425V29.6068Z" fill="url(#paint1_linear_8209_16451)"/>
<path d="M13.5254 30.0715H12.0098L11.8942 25.4205C14.1397 25.0328 15.9905 25.6237 15.6145 28.2592C15.5269 28.8687 15.0376 29.4222 14.5203 29.727L13.5254 30.0727V30.0715ZM12.4757 29.6067C15.9403 30.1194 16.0173 25.2057 12.4757 25.7685V29.6067Z" fill="url(#paint2_linear_8209_16451)"/>
<path d="M56.3161 30.0724C54.0099 29.2387 54.3135 25.2965 56.9572 25.2942C59.6009 25.2919 59.7165 29.2924 57.4815 30.0724H56.3161ZM56.5169 25.7963C54.8635 26.1396 54.8985 29.9323 57.1825 29.6007C58.9399 29.3461 58.9376 25.293 56.5169 25.7963Z" fill="url(#paint3_linear_8209_16451)"/>
<path d="M8.39584 30.0708C7.99882 29.9295 7.34607 29.2569 7.34607 28.8494V25.4186H7.92875V28.8494C7.92875 28.9124 8.19616 29.3375 8.30592 29.4145C8.70411 29.6948 9.35919 29.7111 9.7387 29.376C9.81693 29.3071 10.1439 28.7735 10.1439 28.7326V25.4175H10.7266V28.6158C10.7266 29.1646 10.0598 29.8583 9.56121 30.0696H8.39584V30.0708Z" fill="url(#paint4_linear_8209_16451)"/>
<path d="M52.4685 30.0723C49.9322 29.0716 50.4063 25.3233 53.3431 25.2964C53.8371 25.2917 54.5178 25.2719 54.3333 25.8849C53.5953 25.781 52.9146 25.6199 52.2408 26.0659C51.3335 26.6673 51.2191 28.3826 51.9547 29.1311C52.7908 29.9824 54.2411 29.4067 54.3322 29.492C54.4991 29.6484 54.2621 30.0501 53.983 30.0735H52.4673L52.4685 30.0723Z" fill="url(#paint5_linear_8209_16451)"/>
<path d="M2.9158 30.0723C0.35619 29.0739 0.8548 25.3233 3.79041 25.2964C4.28435 25.2917 4.96512 25.2719 4.78062 25.8849C2.85158 25.2695 1.31838 26.7338 2.07388 28.6442C2.68343 30.1832 4.66736 29.3857 4.78062 29.492C4.94761 29.6484 4.71056 30.0501 4.43148 30.0735H2.9158V30.0723Z" fill="url(#paint6_linear_8209_16451)"/>
<path d="M68.0924 30.0721H67.0426C69.7447 29.7522 69.6104 25.643 66.8675 25.643C64.1245 25.643 63.9762 29.751 66.6923 30.0721H65.6426C63.2744 28.4163 64.4293 24.9984 67.4396 25.4293C68.173 25.5344 68.9997 26.332 69.2239 27.0221C69.6431 28.3124 69.1025 29.2956 68.0912 30.0709L68.0924 30.0721Z" fill="url(#paint7_linear_8209_16451)"/>
<path d="M19.7063 10.8816L21.0246 11.4829C23.84 12.8234 24.7718 16.3861 23.1347 19.0123C20.4489 23.3211 12.5401 21.552 8.27795 21.9304V21.2309C8.84196 21.1831 9.6465 21.468 9.85786 20.772L9.90924 2.44839C9.96179 1.51539 8.97858 1.5983 8.27795 1.57494V0.992258C11.9691 1.34374 17.4036 0.130491 20.6731 2.06304C24.1914 4.14156 23.9159 9.84813 19.7063 10.8816ZM12.8262 10.0665H16.6154C17.9337 10.0665 19.6316 8.91747 19.9982 7.62599C20.8623 4.58529 18.7242 2.92948 15.9206 2.73331C15.4792 2.70295 12.8262 2.6142 12.8262 3.14551V10.0665ZM12.8262 11.9267V19.5448C12.8262 20.4229 16.0887 20.1438 16.717 20.0527C18.7569 19.7584 20.6089 18.7858 20.7596 16.5251C21.062 11.9687 16.1892 11.8519 12.8262 11.9255V11.9267Z" fill="url(#paint8_linear_8209_16451)"/>
<path d="M50.078 0.993164C52.7533 1.23955 55.4495 2.82062 55.7321 5.70485C56.0929 9.39947 54.151 10.6349 51.0064 11.5749C50.8756 11.6134 50.7997 11.4978 50.8371 11.7512C52.4964 13.17 54.1498 14.9589 55.3608 16.7759C55.8524 17.5139 57.5607 20.9247 58.0698 21.1711C58.5136 21.386 58.6093 20.9843 58.5311 21.929H54.8586C53.6069 19.4429 52.3621 17.0935 50.4891 15.0056C50.1796 14.6612 47.8279 12.2755 47.6294 12.2755H45.7634C45.6361 12.2755 45.5964 12.5593 45.5824 12.6772C45.3804 14.3902 45.4376 19.0074 45.7132 20.7017C45.8486 21.5308 46.5796 21.1641 47.2218 21.2318V21.9301H41.2747V21.2318C41.8726 21.2155 42.6818 21.4245 42.6736 20.5943L42.6176 1.92266C42.4132 1.51513 41.3249 1.62606 41.2747 1.57585C41.2409 1.54315 41.2969 1.12278 41.2747 0.994332H50.078V0.993164ZM45.7062 10.531H47.7461C49.7803 10.531 52.4205 9.3189 52.689 7.08625C52.9646 4.78937 52.097 3.36244 49.7931 2.9047C49.2408 2.79493 45.7062 2.48783 45.7062 3.14408V10.5298V10.531Z" fill="url(#paint9_linear_8209_16451)"/>
<path d="M66.3187 0.562617C80.5414 -0.802431 81.0528 23.3492 66.4028 22.2773C54.491 21.4062 54.4467 1.7023 66.3187 0.562617ZM66.1985 2.41927C57.9521 3.46203 58.5885 23.0841 69.1177 20.3365C76.3108 18.46 76.1531 1.16165 66.1985 2.41927Z" fill="url(#paint10_linear_8209_16451)"/>
<path d="M39.4102 0.993355V4.48246C38.2144 4.76504 38.8029 3.57282 38.1572 3.08355C38.0124 2.97378 37.174 2.73674 37.0199 2.73674H29.9074C29.8945 2.73674 29.7322 2.89905 29.7322 2.91073V10.0641H36.7863C36.8167 10.0641 37.2651 9.8142 37.3176 9.74881C37.7532 9.20232 37.2371 8.29268 38.3604 8.55191V13.5532C37.2604 13.7552 37.7415 13.0955 37.4134 12.4626C37.3153 12.2746 36.8564 11.9242 36.6696 11.9242H29.7322V19.7759C29.7322 19.8214 30.0253 20.0573 30.1117 20.0947C30.5975 20.3037 30.8567 20.0702 31.3016 20.062C32.7939 20.0363 36.9883 20.3329 38.0906 19.8565C38.5099 19.6755 38.9361 19.2387 39.2035 18.8721C39.6635 18.2404 39.4475 17.7873 40.4588 17.9741L39.6425 21.928H25.4175V21.2297C26.0166 21.2133 26.8246 21.4212 26.8165 20.5921L26.7651 2.03145C26.7371 1.49897 25.4713 1.62625 25.4175 1.5737C25.3837 1.54101 25.4397 1.12064 25.4175 0.992188H39.409L39.4102 0.993355Z" fill="url(#paint11_linear_8209_16451)"/>
<path d="M6.29627 0.993164V1.57585C5.76029 1.57585 5.11805 1.48594 4.72103 1.92266L4.66381 20.5943C4.65798 21.5004 5.65636 21.1816 6.29627 21.2318V21.9301H0V21.2318C0.639902 21.1828 1.63829 21.5004 1.63245 20.5943L1.63829 2.44229C1.68033 1.46141 0.730983 1.55717 0 1.57585V0.993164H6.29627Z" fill="url(#paint12_linear_8209_16451)"/>
<path d="M37.4144 25.4342L38.6522 29.144L39.981 25.4926L40.8101 25.4202L41.0436 29.9579H40.4598L40.2858 26.0017L38.9231 29.7617C38.8437 30.0011 38.3766 30.0887 38.3299 29.8131L37.0805 26.1208L36.8469 29.959H36.2631L36.6122 25.4213L37.4156 25.4353L37.4144 25.4342Z" fill="url(#paint13_linear_8209_16451)"/>
<path d="M18.4112 25.4318L19.9386 29.9544C18.9542 30.286 19.1375 28.8042 18.876 28.5741C18.8106 28.5169 17.2575 28.5321 17.1361 28.6127C16.7729 28.8544 17.0147 30.3105 16.0922 29.9544L17.5938 25.4879L18.4112 25.4307V25.4318ZM18.6553 28.0942L18.0154 25.8849L17.2575 28.093H18.6553V28.0942Z" fill="url(#paint14_linear_8209_16451)"/>
<path d="M44.5398 25.4192C44.5562 25.4355 44.5632 25.8839 44.5398 25.8839H42.5582C42.5874 26.1455 42.4473 27.3961 42.7334 27.3961H44.4242C44.4476 27.3961 44.4476 27.8608 44.4242 27.8608H42.5582V29.4898H44.6566C44.6799 29.4898 44.6799 29.9545 44.6566 29.9545H41.9744V25.418C42.3165 25.4869 44.4499 25.3258 44.5398 25.418V25.4192Z" fill="url(#paint15_linear_8209_16451)"/>
<path d="M45.9211 25.4386C46.0121 25.4946 46.8179 27.4073 46.9872 27.28C47.0421 27.0045 47.8361 25.5063 47.9447 25.4444C48.1012 25.3545 48.4258 25.4479 48.6208 25.4211C48.4153 25.929 47.3083 27.2322 47.3387 27.6794C47.362 28.0204 48.7306 29.8618 48.6208 29.9553C48.4351 29.9237 48.0755 30.0206 47.94 29.9366C47.8431 29.8759 47.0315 28.1208 46.93 28.0939C46.6929 28.0309 46.7688 28.2084 46.6999 28.3251C46.5505 28.5797 45.9748 29.7603 45.8837 29.8408C45.6887 30.0125 45.4692 29.9576 45.2415 29.9553C45.0908 29.8221 46.4722 27.99 46.4979 27.6677C46.5259 27.3256 45.3769 25.9348 45.2415 25.4771C45.3524 25.3802 45.8347 25.3837 45.9222 25.4386H45.9211Z" fill="url(#paint16_linear_8209_16451)"/>
<path d="M33.9301 25.302V25.8835H32.0641V27.3957H33.9301V27.7448H32.2392C31.9403 27.7448 32.1026 29.2056 32.0641 29.4894H34.0457C34.069 29.4894 34.069 29.9541 34.0457 29.9541H31.4802V25.302H33.9289H33.9301Z" fill="url(#paint17_linear_8209_16451)"/>
<path d="M50.0198 25.4202H49.4371V29.9567H50.0198V25.4202Z" fill="url(#paint18_linear_8209_16451)"/>
<path d="M6.17936 25.4202H5.59668V29.9567H6.17936V25.4202Z" fill="url(#paint19_linear_8209_16451)"/>
<path d="M44.1894 24.2568C43.8905 24.6153 43.5717 25.1536 43.024 25.0684C43.316 24.6002 43.5425 24.1272 44.1894 24.2568Z" fill="url(#paint20_linear_8209_16451)"/>
<path d="M65.8774 26.4659C66.5149 26.5138 67.8823 26.2102 67.9746 27.1175C68.0201 27.5612 67.8496 27.8415 67.3942 27.8637C67.3814 28.0435 67.6441 27.9886 67.7971 28.2152C68.0131 28.5328 68.2128 29.3712 67.5098 29.1423C67.6126 28.1661 67.2483 28.0178 66.3421 28.0949C66.2686 28.6566 66.6364 29.3151 65.8762 29.1423V26.4671L65.8774 26.4659ZM66.3421 27.7469C67.9045 27.9933 68.0155 26.5045 66.3421 26.8151V27.7469Z" fill="url(#paint21_linear_8209_16451)"/>
<defs>
<linearGradient id="paint0_linear_8209_16451" x1="20.5961" y1="27.6922" x2="26.4217" y2="27.6922" gradientUnits="userSpaceOnUse">
<stop stop-color="#A12E2B"/>
<stop offset="0.5" stop-color="#D25333"/>
<stop offset="1" stop-color="#FF6D75"/>
</linearGradient>
<linearGradient id="paint1_linear_8209_16451" x1="26.7755" y1="27.6914" x2="32.5737" y2="27.6914" gradientUnits="userSpaceOnUse">
<stop stop-color="#A12E2B"/>
<stop offset="0.5" stop-color="#D25333"/>
<stop offset="1" stop-color="#FF6D75"/>
</linearGradient>
<linearGradient id="paint2_linear_8209_16451" x1="11.8942" y1="27.6926" x2="17.5057" y2="27.6926" gradientUnits="userSpaceOnUse">
<stop stop-color="#A12E2B"/>
<stop offset="0.5" stop-color="#D25333"/>
<stop offset="1" stop-color="#FF6D75"/>
</linearGradient>
<linearGradient id="paint3_linear_8209_16451" x1="54.7635" y1="27.6833" x2="61.1553" y2="27.6833" gradientUnits="userSpaceOnUse">
<stop stop-color="#A12E2B"/>
<stop offset="0.5" stop-color="#D25333"/>
<stop offset="1" stop-color="#FF6D75"/>
</linearGradient>
<linearGradient id="paint4_linear_8209_16451" x1="7.34607" y1="27.7441" x2="12.3791" y2="27.7441" gradientUnits="userSpaceOnUse">
<stop stop-color="#A12E2B"/>
<stop offset="0.5" stop-color="#D25333"/>
<stop offset="1" stop-color="#FF6D75"/>
</linearGradient>
<linearGradient id="paint5_linear_8209_16451" x1="50.8224" y1="27.6843" x2="56.1305" y2="27.6843" gradientUnits="userSpaceOnUse">
<stop stop-color="#A12E2B"/>
<stop offset="0.5" stop-color="#D25333"/>
<stop offset="1" stop-color="#FF6D75"/>
</linearGradient>
<linearGradient id="paint6_linear_8209_16451" x1="1.26038" y1="27.6843" x2="6.58408" y2="27.6843" gradientUnits="userSpaceOnUse">
<stop stop-color="#A12E2B"/>
<stop offset="0.5" stop-color="#D25333"/>
<stop offset="1" stop-color="#FF6D75"/>
</linearGradient>
<linearGradient id="paint7_linear_8209_16451" x1="64.3763" y1="27.7321" x2="71.8063" y2="27.7321" gradientUnits="userSpaceOnUse">
<stop stop-color="#A12E2B"/>
<stop offset="0.5" stop-color="#D25333"/>
<stop offset="1" stop-color="#FF6D75"/>
</linearGradient>
<linearGradient id="paint8_linear_8209_16451" x1="8.27795" y1="11.4573" x2="31.5974" y2="11.4573" gradientUnits="userSpaceOnUse">
<stop stop-color="#A12E2B"/>
<stop offset="0.5" stop-color="#D25333"/>
<stop offset="1" stop-color="#FF6D75"/>
</linearGradient>
<linearGradient id="paint9_linear_8209_16451" x1="41.2635" y1="11.4616" x2="67.0088" y2="11.4616" gradientUnits="userSpaceOnUse">
<stop stop-color="#A12E2B"/>
<stop offset="0.5" stop-color="#D25333"/>
<stop offset="1" stop-color="#FF6D75"/>
</linearGradient>
<linearGradient id="paint10_linear_8209_16451" x1="57.4418" y1="11.4094" x2="86.8424" y2="11.4094" gradientUnits="userSpaceOnUse">
<stop stop-color="#A12E2B"/>
<stop offset="0.5" stop-color="#D25333"/>
<stop offset="1" stop-color="#FF6D75"/>
</linearGradient>
<linearGradient id="paint11_linear_8209_16451" x1="25.4064" y1="11.4601" x2="47.8169" y2="11.4601" gradientUnits="userSpaceOnUse">
<stop stop-color="#A12E2B"/>
<stop offset="0.5" stop-color="#D25333"/>
<stop offset="1" stop-color="#FF6D75"/>
</linearGradient>
<linearGradient id="paint12_linear_8209_16451" x1="0" y1="11.4616" x2="9.3741" y2="11.4616" gradientUnits="userSpaceOnUse">
<stop stop-color="#A12E2B"/>
<stop offset="0.5" stop-color="#D25333"/>
<stop offset="1" stop-color="#FF6D75"/>
</linearGradient>
<linearGradient id="paint13_linear_8209_16451" x1="36.2631" y1="27.7021" x2="43.3806" y2="27.7021" gradientUnits="userSpaceOnUse">
<stop stop-color="#A12E2B"/>
<stop offset="0.5" stop-color="#D25333"/>
<stop offset="1" stop-color="#FF6D75"/>
</linearGradient>
<linearGradient id="paint14_linear_8209_16451" x1="16.0922" y1="27.7204" x2="21.8188" y2="27.7204" gradientUnits="userSpaceOnUse">
<stop stop-color="#A12E2B"/>
<stop offset="0.5" stop-color="#D25333"/>
<stop offset="1" stop-color="#FF6D75"/>
</linearGradient>
<linearGradient id="paint15_linear_8209_16451" x1="41.9744" y1="27.6716" x2="45.9938" y2="27.6716" gradientUnits="userSpaceOnUse">
<stop stop-color="#A12E2B"/>
<stop offset="0.5" stop-color="#D25333"/>
<stop offset="1" stop-color="#FF6D75"/>
</linearGradient>
<linearGradient id="paint16_linear_8209_16451" x1="45.23" y1="27.686" x2="50.2877" y2="27.686" gradientUnits="userSpaceOnUse">
<stop stop-color="#A12E2B"/>
<stop offset="0.5" stop-color="#D25333"/>
<stop offset="1" stop-color="#FF6D75"/>
</linearGradient>
<linearGradient id="paint17_linear_8209_16451" x1="31.4802" y1="27.6281" x2="35.3258" y2="27.6281" gradientUnits="userSpaceOnUse">
<stop stop-color="#A12E2B"/>
<stop offset="0.5" stop-color="#D25333"/>
<stop offset="1" stop-color="#FF6D75"/>
</linearGradient>
<linearGradient id="paint18_linear_8209_16451" x1="49.4371" y1="27.6884" x2="50.3047" y2="27.6884" gradientUnits="userSpaceOnUse">
<stop stop-color="#A12E2B"/>
<stop offset="0.5" stop-color="#D25333"/>
<stop offset="1" stop-color="#FF6D75"/>
</linearGradient>
<linearGradient id="paint19_linear_8209_16451" x1="5.59668" y1="27.6884" x2="6.4642" y2="27.6884" gradientUnits="userSpaceOnUse">
<stop stop-color="#A12E2B"/>
<stop offset="0.5" stop-color="#D25333"/>
<stop offset="1" stop-color="#FF6D75"/>
</linearGradient>
<linearGradient id="paint20_linear_8209_16451" x1="43.024" y1="24.6563" x2="44.7591" y2="24.6563" gradientUnits="userSpaceOnUse">
<stop stop-color="#A12E2B"/>
<stop offset="0.5" stop-color="#D25333"/>
<stop offset="1" stop-color="#FF6D75"/>
</linearGradient>
<linearGradient id="paint21_linear_8209_16451" x1="65.8762" y1="27.8176" x2="69.0365" y2="27.8176" gradientUnits="userSpaceOnUse">
<stop stop-color="#A12E2B"/>
<stop offset="0.5" stop-color="#D25333"/>
<stop offset="1" stop-color="#FF6D75"/>
</linearGradient>
</defs>
</svg>
