<svg width="35" height="29" viewBox="0 0 35 29" fill="none" xmlns="http://www.w3.org/2000/svg">
<path d="M34.9056 9.24471C34.6558 8.43809 34.177 7.77001 33.5925 7.16981C32.7145 6.26832 31.683 5.56213 30.5507 4.99488C30.3482 4.89326 30.2556 4.76107 30.2156 4.54274C30.1499 4.18628 30.0695 3.82663 29.9433 3.48684C29.4735 2.22014 28.6543 1.2218 27.4232 0.585869C26.2256 -0.0325907 24.9569 -0.169144 23.6503 0.213126C22.2159 0.63271 21.2445 1.55683 20.6685 2.88386C20.4322 3.42729 20.1897 3.96239 19.8199 4.43676C19.3243 5.07228 18.6864 5.55895 18.0373 6.02538C16.6671 7.01102 15.187 7.82638 13.6559 8.54487C12.1509 9.25066 10.6149 9.89254 9.09519 10.5694C7.56735 11.2493 6.144 12.0933 4.86025 13.1531C3.3569 14.3948 2.09928 15.831 1.22413 17.5598C0.95799 18.0853 0.697567 18.6264 0.540415 19.1881C0.332648 19.9312 0.190599 20.6965 0.0901851 21.4611C-0.069824 22.6762 -0.0343118 23.8877 0.338363 25.075C0.740018 26.354 1.49965 27.3726 2.66992 28.0744C3.66712 28.6722 4.76351 28.9743 5.94032 28.9973C7.39999 29.0259 8.82742 28.8254 10.2287 28.4444C12.2925 27.8835 14.1873 26.9681 15.9319 25.7693C16.7124 25.233 17.4349 24.6169 18.1814 24.0342C18.3537 23.8996 18.3941 23.9059 18.4488 24.1092C18.6366 24.809 18.8876 25.4854 19.2545 26.117C19.7517 26.9736 20.4093 27.6818 21.2906 28.1784C22.2666 28.7282 23.3881 28.9728 24.5163 28.9578C25.1955 28.949 25.864 28.9578 26.3792 28.9578C27.2029 28.9101 27.8052 28.9005 28.4612 28.8413C28.9204 28.8 29.3821 28.7298 29.7837 28.4789C30.0286 28.3261 30.0866 28.0823 29.9298 27.8434C29.8539 27.7282 29.7588 27.6179 29.6498 27.5317C29.4245 27.3535 29.1678 27.2106 28.9535 27.0217C28.3796 26.5159 27.9134 25.9257 27.5522 25.2572C26.686 23.6547 26.6574 21.9664 27.0705 20.2571C27.3142 19.2504 27.755 18.3116 28.3612 17.449C29.0086 16.5281 29.7907 15.7417 30.7001 15.0649C31.3365 14.5913 31.9765 14.1174 32.568 13.5938C33.4072 12.8515 34.0901 11.977 34.653 11.0167C34.9795 10.4598 35.102 9.87785 34.9056 9.24471ZM21.8833 4.5749C21.9298 2.91522 23.2736 1.55722 25.0586 1.55484C26.8689 1.55246 28.271 2.93189 28.2673 4.65826C28.2767 6.37788 26.826 7.74937 25.0884 7.75453C23.294 7.76008 21.8339 6.32667 21.8833 4.5749ZM32.1553 10.5622C31.3316 11.5999 30.4127 12.5323 29.3143 13.3008C28.5212 13.8554 27.8318 14.5262 27.2403 15.2832C26.6056 16.095 26.1419 17.0036 25.8027 17.9631C25.5541 18.6669 25.3455 19.3905 25.1982 20.1202C24.9986 21.1082 24.952 22.1117 25.0426 23.1215C25.1247 24.0342 25.3026 24.9257 25.5529 25.8058C25.6125 26.0158 25.6929 26.2198 25.759 26.4282C25.8194 26.6176 25.7908 26.662 25.5953 26.6628C24.261 26.6672 23.0535 26.3079 22.0572 25.4207C21.4036 24.8388 21.013 24.0949 20.795 23.2625C20.5118 22.182 20.6036 21.1062 20.7689 20.0173C20.933 18.9352 20.9195 17.848 20.4281 16.827C20.097 16.1383 19.5848 15.604 18.8941 15.232C18.128 14.8188 17.2936 14.6743 16.436 14.5858C15.3396 14.4726 14.2857 14.6707 13.2338 14.9307C11.979 15.2408 10.7516 15.6349 9.56665 16.1367C8.63925 16.5293 7.74124 16.9886 6.83547 17.4292C6.55096 17.5677 6.25952 17.7114 6.01542 17.9055C5.56356 18.264 5.31416 18.7268 5.43865 19.3195C5.54152 19.8105 5.85419 20.0773 6.3681 20.1106C6.76771 20.1364 7.12569 20.0285 7.4751 19.8347C8.41352 19.3151 9.34745 18.7836 10.3128 18.3148C11.6921 17.6447 13.1305 17.118 14.6637 16.8838C15.547 16.7488 16.4279 16.7543 17.2797 17.0664C17.6598 17.2057 18.0141 17.4042 18.2729 17.7078C18.5194 17.9972 18.5855 18.3704 18.5892 18.7368C18.6031 20.0316 18.2602 21.2177 17.4226 22.2498C16.616 23.2438 15.5968 23.9766 14.4633 24.576C13.106 25.2933 11.6676 25.8058 10.1781 26.1876C9.36296 26.3964 8.54822 26.61 7.72572 26.7871C6.842 26.9772 5.93828 27.028 5.05292 26.8347C3.68141 26.5358 2.78013 25.8641 2.46624 24.3184C2.37481 23.8674 2.36378 23.401 2.31603 22.9417C2.32786 21.5575 2.60421 20.2242 3.09975 18.9416C3.68998 17.4141 4.61167 16.0902 5.87664 15.0065C6.48198 14.4881 7.17549 14.0943 7.88492 13.7287C8.77354 13.2706 9.65236 12.7907 10.5643 12.3807C11.4696 11.9738 12.4003 11.6141 13.3387 11.2843C14.5926 10.8437 15.7641 10.2577 16.8952 9.57577C18.1945 8.79178 19.5186 8.04708 20.8293 7.28096C21.0012 7.18053 21.0889 7.21149 21.2024 7.37742C22.2437 8.89975 23.7344 9.5718 25.5806 9.41579C26.9664 9.2983 28.1228 8.67825 28.9829 7.59257C29.1298 7.40639 29.2286 7.18211 29.3355 6.96895C29.4029 6.83517 29.4743 6.78794 29.6204 6.86614C30.3989 7.28135 31.1479 7.73944 31.7393 8.39323C31.9708 8.64848 32.1745 8.93825 32.3345 9.24074C32.5802 9.70597 32.4945 10.1351 32.1553 10.5622Z" fill="#4CB648"/>
<path d="M26.5022 5.43511C26.4732 5.50537 26.4618 5.59112 26.4128 5.64391C26.023 6.06707 25.5495 6.32152 24.947 6.2981C23.9869 6.31993 23.224 5.6062 23.0983 4.76981C22.9522 3.79925 23.5094 2.97318 24.4596 2.69888C25.2482 2.47182 26.1124 2.86045 26.4295 3.32489C26.4671 3.37967 26.5112 3.47057 26.4887 3.51304C26.4655 3.55671 26.365 3.57894 26.2977 3.58092C25.7205 3.59958 25.3385 3.9759 25.3454 4.52687C25.3511 4.98576 25.7732 5.35691 26.3022 5.37557C26.3695 5.37795 26.4353 5.41447 26.5022 5.43511Z" fill="#4CB648"/>
</svg>
