<svg width="102" height="102" viewBox="0 0 102 102" fill="none" xmlns="http://www.w3.org/2000/svg">
<g filter="url(#filter0_d_8225_1541)">
<circle cx="51" cy="51" r="39" fill="white"/>
</g>
<path d="M76.3842 43.139C76.0235 41.924 75.3322 40.9177 74.4882 40.0136C73.2205 38.6557 71.7312 37.592 70.0964 36.7376C69.804 36.5845 69.6703 36.3854 69.6125 36.0566C69.5176 35.5196 69.4015 34.9779 69.2194 34.4661C68.5411 32.5581 67.3582 31.0543 65.5807 30.0965C63.8516 29.1649 62.0199 28.9592 60.1334 29.535C58.0624 30.167 56.6597 31.559 55.8281 33.5578C55.4869 34.3764 55.1368 35.1824 54.6029 35.8969C53.8874 36.8542 52.9663 37.5873 52.0292 38.2898C50.0507 39.7745 47.9137 41.0026 45.7031 42.0848C43.5301 43.148 41.3124 44.1148 39.1182 45.1343C36.9123 46.1585 34.8572 47.4297 33.0037 49.0261C30.8331 50.8965 29.0173 53.0597 27.7538 55.6637C27.3695 56.4554 26.9935 57.2703 26.7666 58.1164C26.4666 59.2357 26.2615 60.3885 26.1165 61.5401C25.8855 63.3703 25.9368 65.1952 26.4749 66.9836C27.0548 68.9101 28.1516 70.4444 29.8412 71.5015C31.281 72.402 32.864 72.857 34.5631 72.8917C36.6707 72.9347 38.7316 72.6328 40.7549 72.0588C43.7346 71.2139 46.4704 69.8351 48.9893 68.0294C50.1161 67.2216 51.1593 66.2936 52.2372 65.4158C52.4859 65.2131 52.5443 65.2227 52.6232 65.5288C52.8944 66.583 53.2568 67.6018 53.7866 68.5531C54.5045 69.8435 55.4539 70.9102 56.7263 71.6582C58.1355 72.4863 59.7548 72.8548 61.3837 72.8321C62.3644 72.819 63.3296 72.8321 64.0734 72.8321C65.2627 72.7604 66.1324 72.7458 67.0795 72.6567C67.7425 72.5945 68.409 72.4887 68.989 72.1108C69.3426 71.8806 69.4263 71.5135 69.2 71.1535C69.0903 70.9801 68.953 70.8139 68.7957 70.6842C68.4703 70.4157 68.0996 70.2004 67.7902 69.9158C66.9616 69.1541 66.2886 68.2649 65.767 67.258C64.5164 64.8442 64.4751 62.3013 65.0715 59.7266C65.4234 58.2103 66.0599 56.7962 66.9351 55.4969C67.8698 54.1097 68.999 52.9252 70.3121 51.9057C71.2309 51.1924 72.155 50.4785 73.0089 49.6898C74.2206 48.5717 75.2066 47.2545 76.0194 45.8081C76.4908 44.9692 76.6676 44.0927 76.3842 43.139ZM57.5821 36.105C57.6492 33.6051 59.5894 31.5596 62.1666 31.556C64.7804 31.5524 66.8048 33.6302 66.7995 36.2306C66.8131 38.8208 64.7185 40.8866 62.2097 40.8944C59.6189 40.9027 57.5107 38.7436 57.5821 36.105ZM72.4131 45.1235C71.2238 46.6865 69.8972 48.091 68.3112 49.2486C67.1661 50.0839 66.1707 51.0944 65.3167 52.2346C64.4003 53.4574 63.7308 54.826 63.241 56.2712C62.8821 57.3313 62.5809 58.4213 62.3682 59.5203C62.08 61.0085 62.0128 62.5201 62.1436 64.0412C62.2621 65.4158 62.5191 66.7588 62.8803 68.0844C62.9664 68.4007 63.0825 68.708 63.178 69.0219C63.2652 69.3071 63.2239 69.3741 62.9416 69.3753C61.015 69.3819 59.2717 68.8408 57.8331 67.5044C56.8896 66.6278 56.3256 65.5073 56.0108 64.2535C55.6018 62.6259 55.7344 61.0056 55.9731 59.3654C56.21 57.7355 56.1906 56.0978 55.481 54.5599C55.0031 53.5225 54.2634 52.7177 53.2662 52.1575C52.16 51.535 50.9554 51.3174 49.7172 51.1841C48.1342 51.0136 46.6124 51.312 45.0937 51.7036C43.282 52.1706 41.5098 52.7644 39.7989 53.5201C38.4599 54.1115 37.1634 54.8033 35.8556 55.467C35.4448 55.6757 35.024 55.8921 34.6716 56.1845C34.0192 56.7244 33.6591 57.4216 33.8388 58.3143C33.9873 59.0539 34.4388 59.4557 35.1808 59.506C35.7578 59.5448 36.2746 59.3822 36.7791 59.0904C38.134 58.3077 39.4825 57.5071 40.8763 56.801C42.8677 55.7917 44.9446 54.9982 47.1582 54.6454C48.4335 54.4421 49.7054 54.4505 50.9353 54.9205C51.484 55.1304 51.9956 55.4293 52.3692 55.8867C52.7252 56.3226 52.8207 56.8847 52.826 57.4365C52.846 59.387 52.351 61.1736 51.1416 62.7282C49.9771 64.2254 48.5054 65.3291 46.8688 66.232C44.9092 67.3125 42.8323 68.0844 40.6818 68.6596C39.5049 68.9741 38.3285 69.2958 37.141 69.5624C35.865 69.8489 34.5602 69.9254 33.2819 69.6342C31.3017 69.184 30.0004 68.1723 29.5472 65.844C29.4151 65.1647 29.3992 64.4622 29.3303 63.7704C29.3474 61.6854 29.7464 59.677 30.4618 57.7451C31.314 55.4443 32.6448 53.4502 34.4712 51.8179C35.3452 51.037 36.3465 50.4438 37.3708 49.8931C38.6538 49.2031 39.9227 48.4802 41.2393 47.8626C42.5465 47.2497 43.8902 46.708 45.2451 46.2111C47.0556 45.5474 48.7471 44.6649 50.3802 43.6377C52.2561 42.4568 54.1679 41.335 56.0604 40.1811C56.3085 40.0298 56.4352 40.0764 56.599 40.3263C58.1025 42.6194 60.2548 43.6317 62.9204 43.3967C64.9213 43.2197 66.5909 42.2857 67.8327 40.6504C68.0448 40.37 68.1875 40.0322 68.3419 39.7111C68.4391 39.5096 68.5422 39.4384 68.7532 39.5562C69.8771 40.1817 70.9586 40.8717 71.8126 41.8564C72.1467 42.2409 72.4408 42.6774 72.6718 43.133C73.0266 43.8338 72.9029 44.4801 72.4131 45.1235Z" fill="#4CB648" stroke="#4CB648" stroke-width="1.84554"/>
<path d="M62.9658 38.2521C62.7325 38.3585 62.4844 38.4055 62.2124 38.3944L62.1868 38.3934L62.1612 38.394C61.2176 38.4164 60.4288 37.6758 60.2989 36.7744L60.2989 36.7742C60.1438 35.6997 60.7136 34.8298 61.7057 34.5309C62.0783 34.4191 62.4945 34.453 62.8752 34.5952C62.9048 34.6062 62.9336 34.6177 62.9617 34.6296C62.8141 34.7197 62.6773 34.8282 62.5543 34.9554C62.1503 35.3731 61.9521 35.933 61.9593 36.5315L62.9658 38.2521ZM62.9658 38.2521C62.3821 37.8953 61.9683 37.285 61.9593 36.5316L62.9658 38.2521Z" fill="#4CB648" stroke="#4CB648" stroke-width="1.59223"/>
<defs>
<filter id="filter0_d_8225_1541" x="0" y="0" width="102" height="102" filterUnits="userSpaceOnUse" color-interpolation-filters="sRGB">
<feFlood flood-opacity="0" result="BackgroundImageFix"/>
<feColorMatrix in="SourceAlpha" type="matrix" values="0 0 0 0 0 0 0 0 0 0 0 0 0 0 0 0 0 0 127 0" result="hardAlpha"/>
<feOffset/>
<feGaussianBlur stdDeviation="6"/>
<feComposite in2="hardAlpha" operator="out"/>
<feColorMatrix type="matrix" values="0 0 0 0 0 0 0 0 0 0 0 0 0 0 0 0 0 0 0.25 0"/>
<feBlend mode="normal" in2="BackgroundImageFix" result="effect1_dropShadow_8225_1541"/>
<feBlend mode="normal" in="SourceGraphic" in2="effect1_dropShadow_8225_1541" result="shape"/>
</filter>
</defs>
</svg>
