<svg width="186" height="186" viewBox="0 0 186 186" fill="none" xmlns="http://www.w3.org/2000/svg">
<g filter="url(#filter0_d_8209_18442)">
<circle cx="92.5195" cy="92.5195" r="80.5195" fill="white"/>
</g>
<path d="M144.927 76.2896C144.183 73.7812 142.756 71.7035 141.013 69.837C138.396 67.0335 135.321 64.8374 131.946 63.0733C131.342 62.7573 131.066 62.3462 130.947 61.6673C130.751 60.5587 130.511 59.4403 130.135 58.3835C128.735 54.4443 126.293 51.3396 122.623 49.362C119.053 47.4387 115.271 47.014 111.376 48.2028C107.1 49.5077 104.204 52.3815 102.487 56.5084C101.783 58.1984 101.06 59.8625 99.9578 61.3376C98.4806 63.314 96.5788 64.8275 94.6441 66.278C90.5594 69.3432 86.1474 71.8788 81.5832 74.1132C77.097 76.3081 72.5182 78.3043 67.9882 80.4091C63.4338 82.5237 59.1909 85.1482 55.3641 88.4443C50.8827 92.3057 47.1338 96.772 44.525 102.148C43.7317 103.783 42.9554 105.465 42.4869 107.212C41.8676 109.523 41.4441 111.903 41.1448 114.281C40.6678 118.059 40.7737 121.827 41.8846 125.519C43.0819 129.497 45.3463 132.664 48.8349 134.847C51.8074 136.706 55.0757 137.646 58.5837 137.717C62.9349 137.806 67.19 137.183 71.3671 135.997C77.5192 134.253 83.1675 131.406 88.368 127.678C90.6945 126.011 92.8482 124.095 95.0736 122.282C95.5871 121.864 95.7076 121.884 95.8706 122.516C96.4304 124.692 97.1787 126.796 98.2726 128.76C99.7546 131.424 101.715 133.626 104.342 135.17C107.251 136.88 110.594 137.641 113.958 137.594C115.982 137.567 117.975 137.594 119.511 137.594C121.966 137.446 123.762 137.416 125.717 137.232C127.086 137.104 128.462 136.885 129.659 136.105C130.389 135.63 130.562 134.872 130.095 134.129C129.869 133.771 129.585 133.427 129.26 133.159C128.589 132.605 127.823 132.161 127.184 131.573C125.474 130 124.084 128.165 123.007 126.086C120.425 121.102 120.34 115.852 121.571 110.536C122.298 107.406 123.612 104.486 125.419 101.804C127.349 98.9398 129.68 96.4943 132.391 94.3895C134.288 92.9168 136.196 91.4428 137.959 89.8145C140.461 87.5061 142.496 84.7865 144.174 81.8003C145.148 80.0684 145.513 78.2586 144.927 76.2896ZM106.109 61.7672C106.247 56.6059 110.253 52.3828 115.574 52.3754C120.97 52.3679 125.15 56.6578 125.139 62.0265C125.167 67.3742 120.843 71.6393 115.663 71.6554C110.314 71.6727 105.961 67.215 106.109 61.7672ZM136.729 80.3868C134.273 83.6138 131.534 86.5135 128.26 88.9035C125.896 90.6281 123.841 92.7143 122.078 95.0685C120.186 97.593 118.803 100.419 117.792 103.402C117.051 105.591 116.429 107.842 115.99 110.111C115.395 113.183 115.256 116.304 115.526 119.444C115.771 122.282 116.302 125.055 117.047 127.792C117.225 128.445 117.465 129.079 117.662 129.728C117.842 130.316 117.757 130.455 117.174 130.457C113.196 130.471 109.597 129.354 106.627 126.595C104.679 124.785 103.514 122.471 102.865 119.883C102.02 116.522 102.294 113.177 102.787 109.791C103.276 106.426 103.236 103.044 101.771 99.8693C100.784 97.7275 99.2569 96.0659 97.1981 94.9092C94.9142 93.6241 92.4272 93.1748 89.8707 92.8995C86.6024 92.5477 83.4607 93.1637 80.3251 93.9722C76.5847 94.9364 72.9258 96.1622 69.3935 97.7226C66.629 98.9435 63.9521 100.372 61.2521 101.742C60.404 102.173 59.5352 102.62 58.8076 103.223C57.4606 104.338 56.7171 105.778 57.0883 107.621C57.3949 109.148 58.3269 109.977 59.8589 110.081C61.0501 110.161 62.1172 109.825 63.1588 109.223C65.9561 107.607 68.7401 105.954 71.6178 104.496C75.7293 102.412 80.0172 100.774 84.5874 100.046C87.2206 99.6261 89.8464 99.6434 92.3858 100.614C93.5186 101.047 94.5748 101.664 95.3462 102.609C96.0811 103.509 96.2783 104.669 96.2892 105.808C96.3306 109.835 95.3085 113.524 92.8117 116.734C90.4073 119.825 87.369 122.103 83.99 123.968C79.9442 126.198 75.6563 127.792 71.2163 128.98C68.7864 129.629 66.3577 130.293 63.9059 130.844C61.2715 131.435 58.5776 131.593 55.9384 130.992C51.85 130.062 49.1634 127.973 48.2277 123.166C47.9551 121.764 47.9223 120.313 47.7799 118.885C47.8152 114.581 48.639 110.434 50.1161 106.445C51.8756 101.695 54.6231 97.5782 58.3939 94.208C60.1983 92.5958 62.2656 91.3712 64.3804 90.2343C67.0293 88.8097 69.6491 87.3172 72.3673 86.042C75.0662 84.7766 77.8404 83.6582 80.6378 82.6324C84.3757 81.2621 87.8679 79.44 91.2396 77.3192C95.1126 74.8811 99.0598 72.5652 102.967 70.1827C103.479 69.8703 103.741 69.9666 104.079 70.4826C107.183 75.2169 111.627 77.3068 117.13 76.8217C121.261 76.4563 124.708 74.528 127.272 71.1517C127.71 70.5728 128.005 69.8753 128.323 69.2124C128.524 68.7964 128.737 68.6494 129.173 68.8926C131.493 70.1839 133.726 71.6085 135.489 73.6417C136.179 74.4354 136.786 75.3366 137.263 76.2773C137.995 77.7241 137.74 79.0585 136.729 80.3868Z" fill="#4CB648" stroke="#4CB648" stroke-width="1.84554"/>
<path d="M118.979 65.9895C118.029 66.9071 116.948 67.394 115.634 67.3407L115.609 67.3397L115.583 67.3403C113.164 67.3977 111.202 65.5126 110.879 63.2699L110.879 63.2697C110.499 60.639 111.926 58.4445 114.378 57.7057L118.979 65.9895ZM118.979 65.9895C117.337 65.6666 116.014 64.3486 115.993 62.6376L118.979 65.9895ZM120.198 59.4751C120.265 59.343 120.133 59.0603 120.021 58.89L114.378 57.7056C115.357 57.4117 116.408 57.5104 117.334 57.856C118.053 58.1245 118.648 58.5238 119.048 58.9432M120.198 59.4751L119.613 59.1763L119.611 59.1755L119.597 59.1685L119.597 59.168L119.489 59.113C119.526 59.0399 119.57 58.9882 119.604 58.9551C119.604 58.9547 119.604 58.9544 119.605 58.9541C119.605 58.9537 119.605 58.9534 119.606 58.953C119.639 58.9207 119.668 58.9007 119.685 58.89C119.709 58.8751 119.723 58.8697 119.723 58.8697C119.723 58.8698 119.722 58.8704 119.718 58.8716C119.707 58.8751 119.688 58.8801 119.663 58.8842C119.638 58.8884 119.616 58.8901 119.604 58.8905L119.601 58.8906C119.413 58.8969 119.228 58.9145 119.048 58.9432M120.198 59.4751L119.613 59.1787L119.611 59.1779L119.595 59.1699L119.594 59.1694L119.488 59.1153C119.457 59.1753 119.44 59.2309 119.431 59.2762C119.431 59.2768 119.431 59.2774 119.431 59.2779C119.428 59.2933 119.426 59.3074 119.424 59.3201C119.418 59.3704 119.42 59.4085 119.422 59.4292C119.424 59.4503 119.427 59.4638 119.428 59.4687M120.198 59.4751L119.428 59.4687M119.048 58.9432C118.237 59.0722 117.523 59.425 116.984 59.9828C116.323 60.6655 115.981 61.5972 115.993 62.6375L119.048 58.9432ZM119.428 59.4687C119.429 59.47 119.429 59.4707 119.429 59.4708L119.428 59.4687Z" fill="#4CB648" stroke="#4CB648" stroke-width="1.59223"/>
<defs>
<filter id="filter0_d_8209_18442" x="0" y="0" width="185.039" height="185.039" filterUnits="userSpaceOnUse" color-interpolation-filters="sRGB">
<feFlood flood-opacity="0" result="BackgroundImageFix"/>
<feColorMatrix in="SourceAlpha" type="matrix" values="0 0 0 0 0 0 0 0 0 0 0 0 0 0 0 0 0 0 127 0" result="hardAlpha"/>
<feOffset/>
<feGaussianBlur stdDeviation="6"/>
<feComposite in2="hardAlpha" operator="out"/>
<feColorMatrix type="matrix" values="0 0 0 0 0 0 0 0 0 0 0 0 0 0 0 0 0 0 0.25 0"/>
<feBlend mode="normal" in2="BackgroundImageFix" result="effect1_dropShadow_8209_18442"/>
<feBlend mode="normal" in="SourceGraphic" in2="effect1_dropShadow_8209_18442" result="shape"/>
</filter>
</defs>
</svg>
