<svg width="81" height="81" viewBox="0 0 81 81" fill="none" xmlns="http://www.w3.org/2000/svg">
<g filter="url(#filter0_d_8209_16476)">
<circle cx="40.5944" cy="40.5944" r="29.5944" fill="white"/>
</g>
<path d="M59.0943 34.1041C58.8206 33.1821 58.296 32.4185 57.6556 31.7324C56.6936 30.702 55.5635 29.8949 54.3229 29.2465C54.1011 29.1303 53.9996 28.9793 53.9557 28.7297C53.8837 28.3223 53.7956 27.9112 53.6574 27.5228C53.1427 26.075 52.2451 24.9339 50.8963 24.207C49.5842 23.5001 48.1942 23.344 46.7627 23.781C45.1912 24.2605 44.1268 25.3168 43.4957 26.8336C43.2368 27.4547 42.9712 28.0664 42.566 28.6086C42.0231 29.335 41.3241 29.8912 40.613 30.4244C39.1117 31.551 37.4901 32.4829 35.8125 33.3041C34.1637 34.1109 32.4808 34.8445 30.8158 35.6181C29.1418 36.3954 27.5824 37.36 26.1759 38.5714C24.5288 39.9906 23.1509 41.6322 22.1921 43.6082C21.9005 44.2089 21.6152 44.8273 21.443 45.4693C21.2153 46.3187 21.0597 47.1935 20.9497 48.0674C20.7744 49.4562 20.8133 50.841 21.2216 52.1981C21.6617 53.6599 22.4939 54.8242 23.7761 55.6264C24.8687 56.3097 26.0699 56.655 27.3592 56.6813C28.9585 56.714 30.5224 56.4848 32.0577 56.0492C34.3188 55.4081 36.3948 54.3619 38.3062 52.9916C39.1613 52.3786 39.9529 51.6745 40.7708 51.0084C40.9596 50.8546 41.0038 50.8618 41.0638 51.0941C41.2695 51.8941 41.5445 52.6672 41.9466 53.3891C42.4913 54.3682 43.2118 55.1776 44.1773 55.7453C45.2466 56.3737 46.4754 56.6533 47.7115 56.6361C48.4557 56.6261 49.1881 56.6361 49.7525 56.6361C50.655 56.5816 51.3149 56.5706 52.0336 56.503C52.5367 56.4558 53.0425 56.3755 53.4826 56.0887C53.7509 55.914 53.8144 55.6355 53.6427 55.3623C53.5595 55.2307 53.4553 55.1046 53.3359 55.0061C53.089 54.8024 52.8077 54.6391 52.5729 54.4231C51.9441 53.8451 51.4334 53.1704 51.0376 52.4063C50.0886 50.5746 50.0573 48.645 50.5099 46.6912C50.7769 45.5406 51.2599 44.4675 51.924 43.4816C52.6333 42.429 53.4902 41.5301 54.4866 40.7565C55.1838 40.2152 55.885 39.6735 56.533 39.075C57.4525 38.2266 58.2007 37.227 58.8174 36.1295C59.1752 35.4929 59.3094 34.8277 59.0943 34.1041ZM44.8267 28.7665C44.8776 26.8694 46.3499 25.3173 48.3056 25.3145C50.289 25.3118 51.8252 26.8885 51.8212 28.8617C51.8314 30.8273 50.242 32.3949 48.3382 32.4008C46.3723 32.4071 44.7726 30.7687 44.8267 28.7665ZM56.0809 35.61C55.1784 36.796 54.1717 37.8618 52.9683 38.7402C52.0993 39.374 51.344 40.1408 50.696 41.0061C50.0005 41.9339 49.4925 42.9725 49.1209 44.0692C48.8485 44.8736 48.62 45.7007 48.4585 46.5347C48.2398 47.664 48.1889 48.811 48.2881 49.9653C48.378 51.0084 48.573 52.0275 48.8472 53.0334C48.9125 53.2734 49.0006 53.5066 49.073 53.7448C49.1392 53.9612 49.1079 54.012 48.8937 54.0129C47.4317 54.0179 46.1088 53.6073 45.0172 52.5932C44.3012 51.9281 43.8732 51.0778 43.6344 50.1264C43.324 48.8913 43.4246 47.6617 43.6058 46.4172C43.7855 45.1803 43.7708 43.9376 43.2323 42.7706C42.8696 41.9834 42.3084 41.3727 41.5517 40.9475C40.7123 40.4752 39.7981 40.3101 38.8585 40.2089C37.6573 40.0796 36.5026 40.306 35.3501 40.6032C33.9754 40.9575 32.6306 41.4081 31.3323 41.9816C30.3162 42.4303 29.3324 42.9553 28.34 43.4589C28.0283 43.6173 27.709 43.7815 27.4415 44.0034C26.9464 44.4131 26.6732 44.9421 26.8096 45.6195C26.9223 46.1808 27.2649 46.4857 27.8279 46.5238C28.2657 46.5533 28.6579 46.4299 29.0408 46.2085C30.0689 45.6145 31.0922 45.007 32.1498 44.4712C33.661 43.7053 35.237 43.1032 36.9167 42.8355C37.8845 42.6812 38.8496 42.6876 39.7829 43.0442C40.1993 43.2035 40.5875 43.4303 40.871 43.7774C41.1411 44.1082 41.2136 44.5347 41.2176 44.9535C41.2328 46.4335 40.8572 47.7892 39.9395 48.9689C39.0558 50.105 37.9391 50.9426 36.6971 51.6277C35.2101 52.4476 33.6341 53.0334 32.0022 53.4698C31.1092 53.7085 30.2165 53.9526 29.3154 54.155C28.3471 54.3723 27.357 54.4304 26.387 54.2094C24.8843 53.8678 23.8969 53.1001 23.553 51.3333C23.4528 50.8178 23.4407 50.2847 23.3884 49.7597C23.4013 48.1776 23.7041 46.6536 24.247 45.1876C24.8937 43.4417 25.9035 41.9285 27.2895 40.6898C27.9527 40.0973 28.7125 39.6472 29.4898 39.2293C30.4634 38.7057 31.4262 38.1572 32.4253 37.6885C33.4172 37.2234 34.4369 36.8123 35.4651 36.4353C36.8389 35.9316 38.1224 35.262 39.3617 34.4825C40.7852 33.5864 42.2359 32.7352 43.672 31.8595C43.8602 31.7447 43.9564 31.7801 44.0807 31.9697C45.2216 33.7098 46.8548 34.4779 48.8776 34.2996C50.3959 34.1653 51.6628 33.4566 52.6051 32.2157C52.7661 32.0029 52.8744 31.7465 52.9915 31.5029C53.0653 31.35 53.1436 31.296 53.3037 31.3853C54.1565 31.8599 54.9772 32.3835 55.6252 33.1308C55.8788 33.4226 56.1019 33.7538 56.2772 34.0995C56.5465 34.6313 56.4525 35.1218 56.0809 35.61Z" fill="#4CB648"/>
<path d="M49.8865 29.7499C49.8548 29.8302 49.8423 29.9282 49.7886 29.9885C49.3615 30.4722 48.8427 30.763 48.1826 30.7363C47.1308 30.7612 46.2949 29.9454 46.1572 28.9894C45.9971 27.8801 46.6075 26.9359 47.6487 26.6224C48.5127 26.3628 49.4594 26.807 49.8069 27.3379C49.8481 27.4005 49.8964 27.5044 49.8718 27.5529C49.8463 27.6029 49.7363 27.6283 49.6625 27.6305C49.0301 27.6519 48.6115 28.082 48.6191 28.7118C48.6254 29.2363 49.0878 29.6605 49.6674 29.6818C49.7412 29.6845 49.8132 29.7263 49.8865 29.7499Z" fill="#4CB648"/>
<defs>
<filter id="filter0_d_8209_16476" x="0.253521" y="0.253521" width="80.6817" height="80.6817" filterUnits="userSpaceOnUse" color-interpolation-filters="sRGB">
<feFlood flood-opacity="0" result="BackgroundImageFix"/>
<feColorMatrix in="SourceAlpha" type="matrix" values="0 0 0 0 0 0 0 0 0 0 0 0 0 0 0 0 0 0 127 0" result="hardAlpha"/>
<feOffset/>
<feGaussianBlur stdDeviation="5.37324"/>
<feComposite in2="hardAlpha" operator="out"/>
<feColorMatrix type="matrix" values="0 0 0 0 0 0 0 0 0 0 0 0 0 0 0 0 0 0 0.25 0"/>
<feBlend mode="normal" in2="BackgroundImageFix" result="effect1_dropShadow_8209_16476"/>
<feBlend mode="normal" in="SourceGraphic" in2="effect1_dropShadow_8209_16476" result="shape"/>
</filter>
</defs>
</svg>
