<svg width="23" height="16" viewBox="0 0 23 16" fill="none" xmlns="http://www.w3.org/2000/svg">
<path fill-rule="evenodd" clip-rule="evenodd" d="M12.5653 2.60144C12.5653 0.804149 14.6781 -0.16062 16.0363 1.01648L21.0277 5.34237C22.5073 6.62468 22.5494 8.90654 21.118 10.2425L16.0937 14.9318C14.7531 16.1831 12.5653 15.2324 12.5653 13.3985V11.6621H7.7625C7.04731 11.6621 6.36142 11.9462 5.8557 12.4519L3.58755 14.7201C2.05723 16.2504 -0.506747 14.7418 0.0878095 12.6608L1.1709 8.87004C2.01617 5.91157 4.72024 3.87189 7.7971 3.87189H12.5653V2.60144ZM14.8589 2.37501C14.6649 2.20686 14.3631 2.34468 14.3631 2.60144V5.66963H7.7971C5.5229 5.66963 3.52424 7.17723 2.89947 9.36392L1.81638 13.1547C1.78902 13.2505 1.80231 13.3118 1.82087 13.3539C1.84298 13.4041 1.88709 13.4568 1.95253 13.4953C2.01797 13.5338 2.08542 13.5468 2.14004 13.5417C2.18589 13.5375 2.24591 13.5193 2.31635 13.4489L4.58451 11.1807C5.42736 10.3379 6.57052 9.86437 7.7625 9.86437H14.3631V13.3985C14.3631 13.6605 14.6756 13.7963 14.8671 13.6175L19.8913 8.92823C20.542 8.32098 20.5229 7.28378 19.8503 6.7009L14.8589 2.37501Z" fill="#5B5F62"/>
</svg>
